<?xml version="1.0" encoding="UTF-8" standalone="no"?><svg xmlns="http://www.w3.org/2000/svg" xmlns:xlink="http://www.w3.org/1999/xlink" contentScriptType="application/ecmascript" contentStyleType="text/css" height="332px" preserveAspectRatio="none" style="width:439px;height:332px;" version="1.1" viewBox="0 0 439 332" width="439px" zoomAndPan="magnify"><defs><filter height="300%" id="f1q4488enjgavi" width="300%" x="-1" y="-1"><feGaussianBlur result="blurOut" stdDeviation="2.0"/><feColorMatrix in="blurOut" result="blurOut2" type="matrix" values="0 0 0 0 0 0 0 0 0 0 0 0 0 0 0 0 0 0 .4 0"/><feOffset dx="4.0" dy="4.0" in="blurOut2" result="blurOut3"/><feBlend in="SourceGraphic" in2="blurOut3" mode="normal"/></filter></defs><g><!--entity core--><rect fill="#FEFECE" filter="url(#f1q4488enjgavi)" height="37.6094" style="stroke: #A80036; stroke-width: 1.5;" width="51" x="99.695" y="263.5"/><rect fill="#FEFECE" height="5" style="stroke: #A80036; stroke-width: 1.5;" width="10" x="94.695" y="268.5"/><rect fill="#FEFECE" height="5" style="stroke: #A80036; stroke-width: 1.5;" width="10" x="94.695" y="291.1094"/><text fill="#000000" font-family="sans-serif" font-size="14" lengthAdjust="spacingAndGlyphs" textLength="31" x="109.695" y="288.0332">Core</text><path d="M185.695,245 L185.695,278.5 L150.843,282.5 L185.695,286.5 L185.695,320.4063 A0,0 0 0 0 185.695,320.4063 L332.695,320.4063 A0,0 0 0 0 332.695,320.4063 L332.695,255 L322.695,245 L185.695,245 A0,0 0 0 0 185.695,245 " fill="#FBFB77" filter="url(#f1q4488enjgavi)" style="stroke: #A80036; stroke-width: 1.0;"/><path d="M322.695,245 L322.695,255 L332.695,255 L322.695,245 " fill="#FBFB77" style="stroke: #A80036; stroke-width: 1.0;"/><text fill="#000000" font-family="sans-serif" font-size="13" lengthAdjust="spacingAndGlyphs" textLength="100" x="191.695" y="263.4951">Interfaces for IOC</text><text fill="#000000" font-family="sans-serif" font-size="13" lengthAdjust="spacingAndGlyphs" textLength="124" x="191.695" y="279.8467">Data Access Objects</text><text fill="#000000" font-family="sans-serif" font-size="13" lengthAdjust="spacingAndGlyphs" textLength="126" x="191.695" y="296.1982">Data Transfer Objects</text><text fill="#000000" font-family="sans-serif" font-size="13" lengthAdjust="spacingAndGlyphs" textLength="44" x="191.695" y="312.5498">Entities</text><!--entity bl--><rect fill="#FEFECE" filter="url(#f1q4488enjgavi)" height="37.6094" style="stroke: #A80036; stroke-width: 1.5;" width="37" x="48.695" y="129"/><rect fill="#FEFECE" height="5" style="stroke: #A80036; stroke-width: 1.5;" width="10" x="43.695" y="134"/><rect fill="#FEFECE" height="5" style="stroke: #A80036; stroke-width: 1.5;" width="10" x="43.695" y="156.6094"/><text fill="#000000" font-family="sans-serif" font-size="14" lengthAdjust="spacingAndGlyphs" textLength="17" x="58.695" y="153.5332">BL</text><!--entity api--><rect fill="#FEFECE" filter="url(#f1q4488enjgavi)" height="37.6094" style="stroke: #A80036; stroke-width: 1.5;" width="41" x="104.695" y="10.5"/><rect fill="#FEFECE" height="5" style="stroke: #A80036; stroke-width: 1.5;" width="10" x="99.695" y="15.5"/><rect fill="#FEFECE" height="5" style="stroke: #A80036; stroke-width: 1.5;" width="10" x="99.695" y="38.1094"/><text fill="#000000" font-family="sans-serif" font-size="14" lengthAdjust="spacingAndGlyphs" textLength="21" x="114.695" y="35.0332">API</text><path d="M180.695,8 L180.695,25.5 L145.822,29.5 L180.695,33.5 L180.695,50.7031 A0,0 0 0 0 180.695,50.7031 L427.695,50.7031 A0,0 0 0 0 427.695,50.7031 L427.695,18 L417.695,8 L180.695,8 A0,0 0 0 0 180.695,8 " fill="#FBFB77" filter="url(#f1q4488enjgavi)" style="stroke: #A80036; stroke-width: 1.0;"/><path d="M417.695,8 L417.695,18 L427.695,18 L417.695,8 " fill="#FBFB77" style="stroke: #A80036; stroke-width: 1.0;"/><text fill="#000000" font-family="sans-serif" font-size="13" lengthAdjust="spacingAndGlyphs" textLength="97" x="186.695" y="26.4951">MVC Application</text><text fill="#000000" font-family="sans-serif" font-size="13" lengthAdjust="spacingAndGlyphs" textLength="226" x="186.695" y="42.8467">Application Bootstrap / IOC registration</text><!--entity fr--><rect fill="#FEFECE" filter="url(#f1q4488enjgavi)" height="37.6094" style="stroke: #A80036; stroke-width: 1.5;" width="127" x="120.695" y="129"/><rect fill="#FEFECE" height="5" style="stroke: #A80036; stroke-width: 1.5;" width="10" x="115.695" y="134"/><rect fill="#FEFECE" height="5" style="stroke: #A80036; stroke-width: 1.5;" width="10" x="115.695" y="156.6094"/><text fill="#000000" font-family="sans-serif" font-size="14" lengthAdjust="spacingAndGlyphs" textLength="107" x="130.695" y="153.5332">FaceRecognition</text><!--entity sp--><rect fill="#FEFECE" filter="url(#f1q4488enjgavi)" height="37.6094" style="stroke: #A80036; stroke-width: 1.5;" width="90" x="283.195" y="129"/><rect fill="#FEFECE" height="5" style="stroke: #A80036; stroke-width: 1.5;" width="10" x="278.195" y="134"/><rect fill="#FEFECE" height="5" style="stroke: #A80036; stroke-width: 1.5;" width="10" x="278.195" y="156.6094"/><text fill="#000000" font-family="sans-serif" font-size="14" lengthAdjust="spacingAndGlyphs" textLength="70" x="293.195" y="153.5332">SharePoint</text><!--link bl to core--><path d="M75.138,167.146 C85.5357,190.899 103.7689,232.5526 115.125,258.4949 " fill="none" id="bl-core" style="stroke: #A80036; stroke-width: 1.0;"/><polygon fill="#A80036" points="117.162,263.1482,117.217,253.2995,115.1569,258.5679,109.8885,256.5077,117.162,263.1482" style="stroke: #A80036; stroke-width: 1.0;"/><text fill="#000000" font-family="sans-serif" font-size="13" lengthAdjust="spacingAndGlyphs" textLength="19" x="96.195" y="211.4951">Ref</text><!--link api to bl--><path d="M116.132,48.703 C105.9598,69.136 89.4433,102.311 78.4513,124.39 " fill="none" id="api-bl" style="stroke: #A80036; stroke-width: 1.0; stroke-dasharray: 7.0,7.0;"/><polygon fill="#A80036" points="76.1938,128.925,83.7859,122.6512,78.4223,124.4491,76.6244,119.0856,76.1938,128.925" style="stroke: #A80036; stroke-width: 1.0;"/><text fill="#000000" font-family="sans-serif" font-size="13" lengthAdjust="spacingAndGlyphs" textLength="12" x="101.195" y="95.4951">DI</text><!--link api to core--><path d="M104.4692,40.712 C65.4672,61.465 -12.93,111.343 10.195,167 C27.2796,208.119 67.1002,242.1077 95.0724,262.0979 " fill="none" id="api-core" style="stroke: #A80036; stroke-width: 1.0;"/><polygon fill="#A80036" points="99.4548,265.1849,94.4006,256.7318,95.3672,262.3054,89.7935,263.272,99.4548,265.1849" style="stroke: #A80036; stroke-width: 1.0;"/><text fill="#000000" font-family="sans-serif" font-size="13" lengthAdjust="spacingAndGlyphs" textLength="19" x="11.195" y="153.4951">Ref</text><!--link api to fr--><path d="M134.414,48.703 C144.762,69.136 161.563,102.311 172.745,124.39 " fill="none" id="api-fr" style="stroke: #A80036; stroke-width: 1.0; stroke-dasharray: 7.0,7.0;"/><polygon fill="#A80036" points="175.041,128.925,174.541,119.0888,172.781,124.4649,167.4049,122.7049,175.041,128.925" style="stroke: #A80036; stroke-width: 1.0;"/><text fill="#000000" font-family="sans-serif" font-size="13" lengthAdjust="spacingAndGlyphs" textLength="12" x="160.195" y="95.4951">DI</text><!--link fr to core--><path d="M176.115,167.146 C165.538,190.899 146.99,232.5526 135.439,258.4949 " fill="none" id="fr-core" style="stroke: #A80036; stroke-width: 1.0;"/><polygon fill="#A80036" points="133.367,263.1482,140.6825,256.554,135.4012,258.5807,133.3745,253.2993,133.367,263.1482" style="stroke: #A80036; stroke-width: 1.0;"/><text fill="#000000" font-family="sans-serif" font-size="13" lengthAdjust="spacingAndGlyphs" textLength="19" x="163.195" y="211.4951">Ref</text><!--link api to sp--><path d="M145.777,42.312 C180.108,62.014 249.486,101.829 292.091,126.28 " fill="none" id="api-sp" style="stroke: #A80036; stroke-width: 1.0; stroke-dasharray: 7.0,7.0;"/><polygon fill="#A80036" points="296.639,128.89,290.8246,120.9406,292.3025,126.401,286.8422,127.879,296.639,128.89" style="stroke: #A80036; stroke-width: 1.0;"/><text fill="#000000" font-family="sans-serif" font-size="13" lengthAdjust="spacingAndGlyphs" textLength="12" x="240.195" y="95.4951">DI</text><!--link sp to core--><path d="M294.405,167.148 C261.311,185.408 209.92,215.078 168.195,245 C161.859,249.5438 155.304,254.7921 149.28,259.8671 " fill="none" id="sp-core" style="stroke: #A80036; stroke-width: 1.0;"/><polygon fill="#A80036" points="145.203,263.3421,154.6468,260.5468,149.0078,260.0981,149.4564,254.4591,145.203,263.3421" style="stroke: #A80036; stroke-width: 1.0;"/><text fill="#000000" font-family="sans-serif" font-size="13" lengthAdjust="spacingAndGlyphs" textLength="19" x="242.195" y="211.4951">Ref</text><!--
@startuml SolutionStructure

component "Core" as core
    note right of core
        Interfaces for IOC
        Data Access Objects
        Data Transfer Objects
        Entities
    end note
component "BL" as bl
    bl - -> core : Ref
component "API" as api
    note right of api
        MVC Application
        Application Bootstrap / IOC registration
    end note
    api ..> bl : DI
    api - -> core : Ref
component "FaceRecognition" as fr
    api ..> fr : DI
    fr - -> core : Ref
component "SharePoint" as sp
    api ..> sp : DI
    sp - -> core : Ref

@enduml

PlantUML version 1.2018.03(Thu Apr 05 18:59:15 CEST 2018)
(GPL source distribution)
Java Runtime: Java(TM) SE Runtime Environment
JVM: Java HotSpot(TM) 64-Bit Server VM
Java Version: 1.8.0_171-b11
Operating System: Windows 10
OS Version: 10.0
Default Encoding: Cp1252
Language: en
Country: US
--></g></svg>